<?xml version="1.0" encoding="UTF-8" standalone="no"?>
<svg
   xmlns:dc="http://purl.org/dc/elements/1.1/"
   xmlns:cc="http://creativecommons.org/ns#"
   xmlns:rdf="http://www.w3.org/1999/02/22-rdf-syntax-ns#"
   xmlns:svg="http://www.w3.org/2000/svg"
   xmlns="http://www.w3.org/2000/svg"
   xmlns:xlink="http://www.w3.org/1999/xlink"
   xmlns:sodipodi="http://sodipodi.sourceforge.net/DTD/sodipodi-0.dtd"
   xmlns:inkscape="http://www.inkscape.org/namespaces/inkscape"
   viewBox="0 0 472.23999 452.12"
   version="1.1"
   id="svg50"
   sodipodi:docname="logo-djtango.svg"
   width="472.23999"
   height="452.12"
   inkscape:version="0.92.2 (5c3e80d, 2017-08-06)">
  <metadata
     id="metadata54">
    <rdf:RDF>
      <cc:Work
         rdf:about="">
        <dc:format>image/svg+xml</dc:format>
        <dc:type
           rdf:resource="http://purl.org/dc/dcmitype/StillImage" />
        <dc:title></dc:title>
      </cc:Work>
    </rdf:RDF>
  </metadata>
  <sodipodi:namedview
     pagecolor="#ffffff"
     bordercolor="#666666"
     borderopacity="1"
     objecttolerance="10"
     gridtolerance="10"
     guidetolerance="10"
     inkscape:pageopacity="0"
     inkscape:pageshadow="2"
     inkscape:window-width="1920"
     inkscape:window-height="1025"
     id="namedview52"
     showgrid="false"
     fit-margin-top="0"
     fit-margin-left="0"
     fit-margin-right="0"
     fit-margin-bottom="0"
     inkscape:zoom="1.3906433"
     inkscape:cx="237.33497"
     inkscape:cy="221.91972"
     inkscape:window-x="1920"
     inkscape:window-y="27"
     inkscape:window-maximized="1"
     inkscape:current-layer="svg50" />
  <defs
     id="defs22">
    <filter
       id="g">
      <feGaussianBlur
         stdDeviation="3.7"
         id="feGaussianBlur2" />
    </filter>
    <linearGradient
       id="a">
      <stop
         stop-color="#fff"
         offset="0"
         id="stop5" />
      <stop
         stop-color="#fff"
         stop-opacity="0"
         offset="1"
         id="stop7" />
    </linearGradient>
    <radialGradient
       id="j"
       cx="199.28"
       cy="192.84"
       r="53.688"
       gradientTransform="matrix(0,2.8729,-1,0,392.84,-372.51)"
       gradientUnits="userSpaceOnUse">
      <stop
         stop-color="#f7f7f7"
         offset="0"
         id="stop10" />
      <stop
         stop-color="#e1e1e1"
         offset="1"
         id="stop12" />
    </radialGradient>
    <radialGradient
       id="h"
       cx="289.42999"
       cy="209.67"
       r="92.5"
       gradientTransform="matrix(-0.86959,0.86959,-1.9615,-1.9615,681.51,178.14)"
       gradientUnits="userSpaceOnUse"
       xlink:href="#a" />
    <radialGradient
       id="k"
       cx="199.28"
       cy="192.84"
       r="68.844002"
       gradientTransform="matrix(0,2.7782,-0.82388,0,358.88,-353.65)"
       gradientUnits="userSpaceOnUse">
      <stop
         stop-color="#6c6c6c"
         offset="0"
         id="stop16" />
      <stop
         stop-color="#3e3e3e"
         offset="1"
         id="stop18" />
    </radialGradient>
    <radialGradient
       id="i"
       cx="289.42999"
       cy="209.67"
       r="92.5"
       gradientTransform="matrix(0.86959,-0.86959,1.9615,1.9615,-281.51,221.86)"
       gradientUnits="userSpaceOnUse"
       xlink:href="#a" />
  </defs>
  <g
     id="g46"
     style="fill-rule:evenodd;stroke-width:2.70000005"
     transform="translate(-15,-15)">
    <path
       d="m 254.59,19.888 c -130.34,0 -236.12,101.27 -236.12,226.06 0,124.78 105.78,226.06 236.12,226.06 130.34,0 236.12,-101.27 236.12,-226.06 0,-124.78 -105.78,-226.06 -236.12,-226.06 z m 0,219.72 c 3.6586,0 6.621,2.8361 6.6211,6.3387 0,3.5026 -2.9625,6.3387 -6.6211,6.3387 -3.6586,0 -6.6211,-2.8362 -6.6211,-6.3387 0,-3.5026 2.9625,-6.3387 6.6211,-6.3387 z"
       id="path24"
       inkscape:connector-curvature="0"
       style="fill-opacity:0.50899999;filter:url(#g)" />
  </g>
  <text
     x="-271"
     y="176"
     font-size="24"
     xml:space="preserve"
     id="text48"
     style="font-size:24px;font-family:serif;text-anchor:middle;stroke-width:0" />
  <g
     id="g929"
     transform="translate(-43.753999,-40.324002)">
    <path
       style="fill-rule:evenodd;stroke-width:2.69402146"
       inkscape:connector-curvature="0"
       id="path26"
       d="M 251.12,17 C 120.78,17 15,117.82202 15,242.06 15,366.28802 120.78,467.12 251.12,467.12 381.46,467.12 487.24,366.29798 487.24,242.06 487.24,117.83198 381.46,17 251.12,17 Z m 0,218.74805 c 3.6586,0 6.621,2.82365 6.6211,6.31066 0,3.4871 -2.9625,6.31066 -6.6211,6.31066 -3.6586,0 -6.621,-2.82356 -6.6211,-6.31066 0,-3.48711 2.9625,-6.31066 6.6211,-6.31066 z"
       transform="translate(28.753999,25.324002)" />
    <path
       style="fill:#333333;fill-rule:evenodd;stroke-width:2.70000005"
       inkscape:connector-curvature="0"
       id="path28"
       d="m 251.12,158.77 c -47.428,0 -85.954,36.883 -85.954,82.289 0,45.406 38.526,82.289 85.954,82.289 47.428,0 85.954,-36.883 85.954,-82.289 0,-45.406 -38.526,-82.289 -85.954,-82.289 z m 0,76.867 c 3.1323,0 5.6638,2.4236 5.6638,5.4223 0,2.9987 -2.5315,5.4223 -5.6638,5.4223 -3.1323,0 -5.6638,-2.4236 -5.6638,-5.4223 0,-2.9987 2.5315,-5.4223 5.6638,-5.4223 z"
       transform="translate(28.753999,25.324002)" />
    <path
       inkscape:connector-curvature="0"
       id="path30"
       d="M 251.12,15 C 120.78,15 15,116.27 15,241.06 15,365.84 120.78,467.12 251.12,467.12 381.46,467.12 487.24,365.85 487.24,241.06 487.24,116.28 381.46,15 251.12,15 Z m 0,4.3913 c 127.82,0 231.58,99.291 231.58,221.66 0,122.369 -103.75,221.7 -231.58,221.7 -127.82,0 -231.58,-99.329 -231.58,-221.7 0,-122.371 103.75,-221.66 231.58,-221.66 z"
       style="fill-rule:evenodd;stroke-width:2.70000005"
       transform="translate(28.753999,25.324002)" />
    <path
       style="fill:url(#i);fill-rule:evenodd;stroke-width:2.70000005"
       inkscape:connector-curvature="0"
       id="path32"
       d="m 370.54,241.06 c 0,63.114 -53.493,114.36 -119.42,114.36 v 107.34 c 127.82,0 231.58,-99.329 231.58,-221.7 z"
       transform="translate(28.753999,25.324002)" />
    <path
       style="fill:url(#h);fill-rule:evenodd;stroke-width:2.70000005"
       inkscape:connector-curvature="0"
       id="path34"
       d="m 131.71,241.06 c 0,-63.114 53.493,-114.36 119.42,-114.36 V 19.36 c -127.82,0 -231.58,99.329 -231.58,221.7 z"
       transform="translate(28.753999,25.324002)" />
    <path
       style="fill:url(#k);fill-rule:evenodd;stroke-width:2.70000005"
       inkscape:connector-curvature="0"
       id="path36"
       d="m 313.26,181.57 c -34.292,-32.829 -89.974,-32.829 -124.26,0 -34.292,32.829 -34.292,86.137 0,118.97 34.292,32.829 89.974,32.829 124.26,0 34.292,-32.829 34.292,-86.137 0,-118.97 z m -2.7357,2.6191 c 32.782,31.384 32.782,82.344 0,113.73 -32.782,31.384 -86.012,31.384 -118.79,0 -32.782,-31.384 -32.782,-82.344 0,-113.73 32.782,-31.384 86.012,-31.384 118.79,0 z"
       transform="translate(28.753999,25.324002)" />
    <path
       style="fill:url(#j);fill-rule:evenodd;stroke-width:2.70000005"
       inkscape:connector-curvature="0"
       id="path38"
       d="m 299.58,194.67 c -26.743,-25.602 -70.165,-25.602 -96.908,0 -26.743,25.602 -26.743,67.173 0,92.775 26.743,25.602 70.165,25.602 96.908,0 26.743,-25.602 26.743,-67.173 0,-92.775 z m -43.772,41.906 c 2.587,2.4767 2.587,6.4876 0,8.9643 -2.587,2.4767 -6.7766,2.4767 -9.3636,0 -2.587,-2.4767 -2.587,-6.4876 0,-8.9643 2.587,-2.4767 6.7766,-2.4767 9.3636,0 z"
       transform="translate(28.753999,25.324002)" />
    <g
       style="fill:#ffffff;fill-rule:evenodd;stroke-width:2.70000005"
       id="g44"
       transform="translate(28.753999,25.324002)">
      <path
         style="opacity:0.74299999"
         inkscape:connector-curvature="0"
         id="path40"
         d="m 307.22,187.35 c -9.0133,-8.629 -19.664,-14.728 -30.996,-18.334 l -1.5794,4.5362 c 10.613,3.3779 20.581,9.1186 29.022,17.2 10.283,9.8442 16.919,21.853 19.912,34.507 l 4.8792,-1.053 c -3.1935,-13.509 -10.259,-26.346 -21.237,-36.856 z" />
      <path
         style="opacity:0.74299999"
         inkscape:connector-curvature="0"
         id="path42"
         d="m 177.88,229.15 -4.9638,-0.81 c -4.1317,23.428 3.24,48.356 22.112,66.422 18.821,18.018 44.769,25.082 69.184,21.196 l -0.8179,-4.7252 c -22.879,3.6461 -47.176,-2.989 -64.812,-19.873 -17.68,-16.926 -24.574,-40.259 -20.702,-62.21 z" />
    </g>
    <text
       id="text885"
       y="254.33566"
       x="252.41824"
       style="font-style:normal;font-variant:normal;font-weight:normal;font-stretch:normal;font-size:40px;line-height:1.25;font-family:'Arial Black';-inkscape-font-specification:'Arial Black, Normal';font-variant-ligatures:normal;font-variant-caps:normal;font-variant-numeric:normal;font-feature-settings:normal;text-align:start;letter-spacing:0px;word-spacing:0px;writing-mode:lr-tb;text-anchor:start;fill:#ad1740;fill-opacity:1;stroke:none"
       xml:space="preserve"><tspan
         style="font-style:normal;font-variant:normal;font-weight:normal;font-stretch:normal;font-size:40px;font-family:'Arial Black';-inkscape-font-specification:'Arial Black, Normal';font-variant-ligatures:normal;font-variant-caps:normal;font-variant-numeric:normal;font-feature-settings:normal;text-align:start;writing-mode:lr-tb;text-anchor:start;fill:#ad1740;fill-opacity:1"
         y="254.33566"
         x="252.41824"
         id="tspan883"
         sodipodi:role="line">DJ</tspan></text>
    <text
       id="text885-0"
       y="304.48331"
       x="224.01103"
       style="font-style:normal;font-variant:normal;font-weight:normal;font-stretch:normal;font-size:29.31418419px;line-height:1.25;font-family:'Arial Black';-inkscape-font-specification:'Arial Black, Normal';font-variant-ligatures:normal;font-variant-caps:normal;font-variant-numeric:normal;font-feature-settings:normal;text-align:start;letter-spacing:0px;word-spacing:0px;writing-mode:lr-tb;text-anchor:start;fill:#ad1740;fill-opacity:1;stroke:none;stroke-width:0.7328546"
       xml:space="preserve"><tspan
         style="font-style:normal;font-variant:normal;font-weight:normal;font-stretch:normal;font-size:29.31418419px;font-family:'Arial Black';-inkscape-font-specification:'Arial Black, Normal';font-variant-ligatures:normal;font-variant-caps:normal;font-variant-numeric:normal;font-feature-settings:normal;text-align:start;writing-mode:lr-tb;text-anchor:start;fill:#ad1740;fill-opacity:1;stroke-width:0.7328546"
         y="304.48331"
         x="224.01103"
         id="tspan883-6"
         sodipodi:role="line">TANGO</tspan></text>
  </g>
</svg>
